<?xml version="1.0" encoding="UTF-8" standalone="no"?>
<svg
   xmlns:rdf="http://www.w3.org/1999/02/22-rdf-syntax-ns#"
   xmlns:svg="http://www.w3.org/2000/svg"
   xmlns="http://www.w3.org/2000/svg"
   class="fermata"
   viewBox="0 -250 25.588197 14.173229"
   version="1.1"
   width="7.2215576mm"
   height="4.0000005mm">
  <defs
     id="defs10" />
  <g
     id="g4"
     transform="matrix(0.04243482,0,0,-0.04243482,0,-235.8692)">
    <path
       style="fill:currentColor"
       id="path6"
       d="m 50,333 503,0 c 28,0 50,-12 50,-27 L 603,13 C 603,6 592,0 578,0 565,0 554,6 554,13 l 0,188 c 0,12 -127,18 -253,18 C 175,219 49,213 49,201 L 49,13 C 49,6 38,0 24,0 11,0 0,6 0,13 l 0,293 c 0,15 22,27 50,27 z M 356,54 c 0,-30 -24,-55 -55,-55 -30,0 -54,25 -54,55 0,30 24,54 54,54 31,0 55,-24 55,-54 z"
       />
  </g>
</svg>
